<svg width="365" height="305" viewBox="0 0 365 305" fill="none" xmlns="http://www.w3.org/2000/svg">
<mask id="mask0" mask-type="alpha" maskUnits="userSpaceOnUse" x="0" y="0" width="365" height="305">
<rect width="364.665" height="305" rx="20" fill="#131313"/>
</mask>
<g mask="url(#mask0)">
<g opacity="0.45">
<path d="M32.2729 326.099C32.2729 226.871 32.2729 128.27 32.2729 29.0415C36.7249 28.6237 40.5091 28.2059 44.2933 28.2059C98.8303 28.2059 153.367 27.997 207.904 28.2059C246.191 28.2059 283.365 55.7808 296.276 87.9516C303.399 105.917 304.067 124.092 300.06 141.43C292.492 173.81 272.458 198.251 237.51 209.323C229.274 211.83 220.592 213.71 211.911 213.919C184.309 214.546 156.484 214.128 128.881 214.128C124.652 214.128 119.532 214.755 118.642 208.905C117.751 204.101 120.868 200.132 126.433 199.714C131.33 199.296 136.004 199.505 140.902 199.505C162.939 199.505 184.976 199.087 206.791 199.505C240.849 200.34 270.455 177.988 280.249 151.249C297.167 104.246 278.468 70.4039 238.846 49.3049C231.277 45.3358 221.483 43.2468 212.801 43.0379C160.045 42.4112 107.289 42.6201 54.5329 42.6201C52.7521 42.6201 51.1939 43.0379 47.8549 43.4557C47.4097 48.4693 46.9645 53.6918 46.9645 58.9144C46.9645 141.848 46.9645 224.782 46.9645 307.716C46.9645 310.64 47.1871 313.565 46.9645 316.281C46.2967 326.308 45.4063 326.935 32.2729 326.099Z" fill="#2C2C2C"/>
<path d="M76.567 326.311C71.002 326.311 66.9952 326.311 61.8754 326.311C61.8754 236.901 61.8754 148.327 61.8754 58.708C66.7726 58.2902 71.4472 57.4546 76.1218 57.4546C118.861 57.4546 161.6 58.2902 204.117 57.0368C239.733 55.9923 269.338 83.7762 273.122 114.485C276.462 141.224 261.547 174.439 226.822 183.004C217.695 185.302 207.901 186.764 198.552 186.973C177.405 187.6 156.258 187.182 135.111 187.182C130.659 187.182 126.429 187.182 122.423 187.182C116.412 174.648 117.971 172.35 130.659 172.141C154.477 171.932 178.295 171.515 201.891 172.35C228.157 173.186 248.859 157.727 255.315 137.464C261.547 117.618 255.982 97.1458 235.726 81.6872C226.599 74.5845 215.692 71.451 204.117 71.451C165.829 71.2421 127.542 71.2421 89.2552 71.451C85.471 71.451 81.6868 72.2866 76.567 72.9133C76.567 157.518 76.567 241.497 76.567 326.311Z" fill="#2C2C2C"/>
<path d="M119.751 155.638C119.083 144.149 119.974 142.895 129.991 142.895C153.364 142.686 176.514 142.895 199.887 142.686C204.339 142.686 208.791 142.686 213.021 141.851C219.476 140.597 224.151 137.046 225.041 130.57C225.486 126.392 225.931 122.423 225.709 118.245C225.041 105.293 219.253 100.279 204.562 100.07C182.079 99.8616 159.597 100.07 137.337 100.07C128.21 100.07 119.083 100.07 108.621 100.07C108.176 106.338 107.731 111.56 107.731 116.783C107.731 180.706 107.731 244.839 107.731 308.763C107.731 311.687 107.953 314.612 107.731 317.328C107.063 326.311 105.505 327.355 93.2619 325.893C93.2619 246.301 93.2619 166.501 93.2619 85.8652C97.4913 85.4474 100.83 85.0296 104.169 85.0296C137.114 85.0296 170.059 85.2385 203.226 85.0296C219.253 84.8207 230.606 91.0877 238.397 104.04C247.969 119.916 241.068 146.238 224.151 155.011C221.702 156.265 218.363 157.101 215.469 157.101C184.75 157.309 153.809 157.101 123.09 157.101C122.2 156.892 121.532 156.265 119.751 155.638Z" fill="#2C2C2C"/>
</g>
</g>
</svg>
