<svg id="Layer_1" data-name="Layer 1" xmlns="http://www.w3.org/2000/svg" xmlns:xlink="http://www.w3.org/1999/xlink" viewBox="0 0 32 32"><defs><style>.cls-1{fill:#131313;}.cls-2{mask:url(#mask);}.cls-3{opacity:0.45;}.cls-4{fill:#2c2c2c;}</style><mask id="mask" x="-32.27" y="-28.11" width="364.67" height="326.44" maskUnits="userSpaceOnUse"><g transform="translate(0 -4.11)"><g id="mask0"><rect class="cls-1" x="-32.27" y="-24" width="364.67" height="305" rx="20"/></g></g></mask></defs><title>patricia</title><g class="cls-2"><g class="cls-3"><path class="cls-4" d="M0,302.1V5c4.45-.42,8.24-.83,12-.83,54.54,0,109.07-.21,163.61,0C213.92,4.21,251.09,31.78,264,64a88.69,88.69,0,0,1,3.79,53.48c-7.57,32.38-27.6,56.82-62.55,67.89a96.75,96.75,0,0,1-25.6,4.6c-27.6.63-55.43.21-83,.21-4.23,0-9.35.63-10.24-5.23-.89-4.8,2.23-8.77,7.79-9.19,4.9-.41,9.57-.2,14.47-.2,22,0,44.07-.42,65.89,0,34.06.83,63.66-21.52,73.46-48.26,16.91-47-1.78-80.85-41.41-101.95-7.57-4-17.36-6.05-26-6.26-52.76-.63-105.51-.42-158.27-.42a65.92,65.92,0,0,0-6.68.84c-.44,5-.89,10.23-.89,15.45V283.72c0,2.92.22,5.85,0,8.56C14,302.31,13.13,302.93,0,302.1Z" transform="translate(0 -4.11)"/><path class="cls-4" d="M44.29,302.31H29.6V34.71c4.9-.42,9.57-1.26,14.25-1.26,42.74,0,85.48.84,128-.41,35.62-1.05,65.23,26.74,69,57.45,3.34,26.73-11.58,60-46.3,68.51a129.73,129.73,0,0,1-28.27,4c-21.15.63-42.29.21-63.44.21H90.15c-6-12.53-4.45-14.83,8.24-15,23.81-.21,47.63-.63,71.23.21,26.26.84,47-14.62,53.42-34.89,6.23-19.84.67-40.31-19.59-55.77-9.12-7.11-20-10.24-31.61-10.24q-57.42-.31-114.86,0c-3.78,0-7.57.84-12.69,1.46Z" transform="translate(0 -4.11)"/><path class="cls-4" d="M87.48,131.64c-.67-11.49.22-12.74,10.24-12.74,23.37-.21,46.52,0,69.89-.21a67.9,67.9,0,0,0,13.14-.84c6.45-1.25,11.13-4.8,12-11.28a77.18,77.18,0,0,0,.67-12.32c-.67-13-6.46-18-21.15-18.18-22.48-.21-45,0-67.23,0H76.35c-.45,6.27-.89,11.49-.89,16.71v192c0,2.93.22,5.85,0,8.57-.67,9-2.23,10-14.47,8.56v-240c4.23-.42,7.57-.84,10.91-.84,32.94,0,65.89.21,99,0,16-.21,27.38,6.06,35.17,19,9.58,15.88,2.68,42.2-14.24,51a20.4,20.4,0,0,1-8.68,2.09c-30.72.21-61.66,0-92.38,0C89.93,132.89,89.26,132.26,87.48,131.64Z" transform="translate(0 -4.11)"/></g></g></svg>