<svg width="96" height="17" viewBox="0 0 96 17" fill="none" xmlns="http://www.w3.org/2000/svg">
<path d="M5.67221 12.1875C5.65064 11.9709 5.62907 11.7675 5.60391 11.521C5.85377 11.5052 6.03443 11.4823 6.21419 11.4823C7.31253 11.4788 8.40997 11.4576 9.50831 11.4858C11.8677 11.5474 13.828 10.0736 14.5964 8.11295C15.702 5.29739 14.2073 2.33215 11.5998 1.33024C10.8745 1.05203 10.1402 0.913807 9.3699 0.913807C6.80111 0.915568 4.23323 0.913807 1.66444 0.913807C1.51884 0.913807 1.37503 0.906763 1.22852 0.919089C0.828556 0.950784 0.776426 1.00713 0.756652 1.4042C0.751259 1.5257 0.756652 1.64719 0.756652 1.76957C0.756652 6.35565 0.756652 10.9391 0.756652 15.5252C0.756652 15.7629 0.756652 16.0015 0.756652 16.2709C0.485213 16.2709 0.29197 16.2709 0.112209 16.2709C-0.0172191 15.7734 -0.0441832 1.02738 0.0816495 0.320409C0.281184 0.295757 0.501391 0.246454 0.718902 0.246454C3.70114 0.241172 6.68337 0.269346 9.6665 0.23589C12.3863 0.205956 14.7582 2.07155 15.444 4.50237C16.1208 6.9015 15.5483 9.0638 13.6491 10.7982C12.7386 11.632 11.5953 12.0801 10.3855 12.1611C8.84769 12.2667 7.29006 12.1875 5.67221 12.1875Z" fill="#FAB957"/>
<path d="M1.52698 16.2694C1.52698 11.3875 1.52698 6.54791 1.52698 1.66425C1.7391 1.64664 1.91796 1.62023 2.09772 1.62023C4.6665 1.61671 7.23259 1.61495 9.80137 1.62023C11.6017 1.62375 13.3597 2.97255 13.9682 4.56081C14.3044 5.43859 14.3394 6.33661 14.148 7.18797C13.7894 8.78152 12.8447 9.98593 11.1981 10.5274C10.8143 10.6542 10.4009 10.7457 9.99731 10.7545C8.69225 10.7827 7.38718 10.7686 6.08392 10.7651C5.88259 10.7651 5.648 10.8003 5.60126 10.5115C5.56351 10.2738 5.70732 10.0828 5.97247 10.0581C6.19717 10.037 6.42816 10.0493 6.65466 10.0493C7.68918 10.0476 8.7264 10.0264 9.76093 10.0528C11.3608 10.0933 12.7611 8.99458 13.215 7.68188C14.0123 5.37256 13.1287 3.71298 11.2619 2.67497C10.9051 2.47599 10.4449 2.37387 10.0306 2.36858C7.54627 2.33865 5.06108 2.35098 2.57498 2.34921C2.49409 2.34921 2.4132 2.36859 2.2586 2.38972C2.24243 2.63975 2.21187 2.89419 2.21187 3.14599C2.20827 7.22407 2.21007 11.3004 2.21007 15.3785C2.21007 15.5211 2.21546 15.662 2.20827 15.8055C2.1876 16.2765 2.14086 16.3099 1.52698 16.2694Z" fill="#FAB957"/>
<path d="M3.60745 16.2704C3.34679 16.2704 3.15535 16.2704 2.91986 16.2704C2.91986 11.8736 2.91986 7.52352 2.91986 3.11441C3.14995 3.09151 3.36836 3.04926 3.58767 3.04926C5.5965 3.04397 7.60713 3.09504 9.61416 3.03165C11.2949 2.97882 12.6899 4.34875 12.8687 5.85249C13.0251 7.16783 12.3196 8.79836 10.6855 9.21655C10.2514 9.32749 9.79841 9.4032 9.34991 9.41553C8.35673 9.44546 7.36086 9.42433 6.36768 9.42433C6.16275 9.42433 5.95692 9.42433 5.77357 9.42433C5.49314 8.81068 5.55965 8.69271 6.15736 8.68919C7.27547 8.6839 8.39448 8.65925 9.51259 8.69447C10.7458 8.73321 11.7228 7.97165 12.0239 6.97942C12.3205 5.99952 12.0508 5.00113 11.1044 4.23429C10.6721 3.88301 10.1651 3.72981 9.61596 3.72629C7.81385 3.71749 6.01265 3.72101 4.21054 3.72629C4.03078 3.72629 3.85192 3.76855 3.60924 3.79849C3.60745 7.97341 3.60745 12.1043 3.60745 16.2704Z" fill="#FAB957"/>
<path d="M5.64834 7.88332C5.62138 7.32074 5.65733 7.25735 6.1292 7.25383C7.22754 7.24327 8.32498 7.25207 9.42332 7.24855C9.63005 7.24855 9.84127 7.25031 10.0408 7.20981C10.3428 7.14818 10.5666 6.97738 10.6044 6.65074C10.6277 6.45001 10.6493 6.24487 10.6385 6.04414C10.6026 5.40936 10.3311 5.15933 9.64712 5.15052C8.59103 5.13996 7.53403 5.147 6.47794 5.147C6.04741 5.147 5.61598 5.147 5.12614 5.147C5.10816 5.4569 5.0794 5.7131 5.0794 5.96842C5.0758 9.11414 5.0776 12.259 5.0776 15.4029C5.0776 15.5456 5.08479 15.6864 5.0758 15.8299C5.04704 16.2763 4.97514 16.3221 4.39001 16.2481C4.39001 12.3321 4.39001 8.40981 4.39001 4.45323C4.58775 4.43738 4.74864 4.41449 4.90863 4.41449C6.46176 4.41273 8.01489 4.42154 9.56893 4.41097C10.3212 4.40569 10.8578 4.71207 11.2281 5.35037C11.682 6.13482 11.3504 7.42727 10.5603 7.85427C10.4399 7.91942 10.2889 7.95288 10.1496 7.95288C8.70068 7.95816 7.25181 7.95464 5.80114 7.95112C5.76339 7.95024 5.72564 7.9203 5.64834 7.88332Z" fill="#FAB957"/>
<path d="M69.6432 3.79648C69.5083 3.90213 69.3843 3.99897 69.2342 4.11519C69.1138 4.01834 68.9969 3.9391 68.8999 3.84402C68.4532 3.40645 68.0433 2.93103 67.5642 2.5322C66.6681 1.78297 65.6129 1.34716 64.467 1.06191C63.2194 0.752003 61.9943 0.803068 60.7917 1.14291C58.8207 1.70197 57.2352 2.80865 56.2078 4.58269C55.4519 5.8857 54.9855 7.29612 55.1365 8.80691C55.4349 11.7933 56.9089 14.0058 59.75 15.2859C61.2384 15.9559 62.7934 16.0827 64.3582 15.7763C66.0426 15.447 67.477 14.6088 68.6095 13.3182C68.7174 13.1967 68.8019 13.0558 68.9097 12.9352C69.1093 12.7168 69.3169 12.6939 69.5003 12.8683C69.6908 13.0514 69.6009 13.187 69.4571 13.3798C68.5844 14.5472 67.4285 15.3475 66.1073 15.9471C64.6332 16.6171 63.0657 16.765 61.5009 16.5237C59.8777 16.2719 58.4054 15.5843 57.1848 14.4697C56.0523 13.4388 55.2695 12.1974 54.8111 10.7359C54.3788 9.35893 54.3177 7.95732 54.6529 6.60148C55.2578 4.14864 56.6941 2.26279 59.0355 1.09008C60.7846 0.215831 62.6334 -0.0104333 64.5218 0.365504C66.6205 0.7837 68.3264 1.88158 69.5883 3.60279C69.6072 3.63624 69.609 3.68202 69.6432 3.79648Z" fill="#FAB957"/>
<path d="M68.5424 12.3528C66.7672 14.8883 63.6268 15.8947 60.6769 14.9799C57.7253 14.0634 55.7991 11.5155 55.7955 8.40762C55.7937 5.30152 57.6767 2.82403 60.454 1.90928C63.5369 0.892406 66.7124 1.823 68.5819 4.50827C68.4543 4.6192 68.3249 4.73541 68.1658 4.87364C68.0489 4.78736 67.9141 4.72397 67.8296 4.62184C67.4045 4.09975 66.9281 3.63666 66.3556 3.27128C65.6123 2.79674 64.8492 2.39175 63.9369 2.32132C63.51 2.28786 63.0803 2.12058 62.6642 2.15756C60.2257 2.3759 58.2996 3.40071 57.1653 5.62727C56.697 6.54555 56.404 7.50872 56.4651 8.53088C56.5946 10.7064 57.5383 12.4346 59.4276 13.661C60.9196 14.6286 62.5716 14.7457 64.2245 14.4649C65.5673 14.2377 66.7196 13.4973 67.6067 12.4355C67.6463 12.388 67.6876 12.344 67.7272 12.2964C68.0921 11.8738 68.1442 11.8773 68.5424 12.3528Z" fill="#FAB957"/>
<path d="M67.4457 5.316C67.2444 5.4146 67.0817 5.49208 66.9055 5.57836C66.2827 4.76398 65.5142 4.14152 64.5318 3.81841C62.5571 3.17131 60.7721 3.51027 59.2819 4.9471C56.8182 7.32158 57.5382 11.4384 60.7631 12.8735C62.7665 13.7636 65.0432 13.2653 66.5244 11.6708C66.5658 11.6268 66.5856 11.5652 66.6251 11.5212C66.9685 11.1417 67.052 11.1452 67.4134 11.5493C66.4489 13.3251 63.8838 14.2927 62.0313 13.9661C58.8307 13.4017 57.1589 10.8881 57.1319 8.45115C57.1014 5.68489 59.1264 3.40021 61.6907 2.91687C64.0482 2.47402 66.3663 3.45128 67.4457 5.316Z" fill="#FAB957"/>
<path d="M65.8613 10.4716C66.3745 10.8334 66.3871 10.8863 66.0608 11.2384C63.7014 13.7863 59.7593 12.7228 58.714 9.81743C58.0102 7.86203 58.8883 5.41008 61.0571 4.49269C62.7703 3.76811 64.7611 4.13436 66.032 5.57208C66.4032 5.99028 66.4014 6.00436 65.8253 6.31075C64.8663 5.1081 63.5702 4.66613 62.0386 4.90737C61.209 5.03767 60.561 5.49108 60.001 6.10649C58.8757 7.34259 58.8452 9.65192 60.2096 10.9408C61.032 11.7165 62.0117 12.0977 63.163 11.9868C64.2794 11.8767 65.1305 11.2965 65.8613 10.4716Z" fill="#FAB957"/>
<path d="M73.5442 0.0474701C73.7689 0.0474701 73.9658 0.0474701 74.1491 0.0474701C74.3055 0.518492 74.3289 15.9345 74.1743 16.5588C73.9855 16.5588 73.7869 16.5588 73.5424 16.5588C73.5442 11.0544 73.5442 5.57119 73.5442 0.0474701Z" fill="#FAB957"/>
<path d="M71.2999 16.565C71.1219 16.5738 70.9251 16.5826 70.6824 16.5932C70.6824 11.0572 70.6824 5.57217 70.6824 0.0484543C70.9089 0.0484543 71.1058 0.0484543 71.2945 0.0484543C71.4491 0.523878 71.4599 15.9602 71.2999 16.565Z" fill="#FAB957"/>
<path d="M72.739 0.0812107C72.739 5.58732 72.739 11.0529 72.739 16.5115C72.1611 16.6101 72.1179 16.5837 72.0838 16.1039C72.0712 15.9419 72.0784 15.7799 72.0784 15.617C72.0784 10.7316 72.0784 5.84616 72.0784 0.958983C72.0784 0.796987 72.0712 0.634991 72.0856 0.472115C72.1233 0.0512768 72.1809 0.0160601 72.739 0.0812107Z" fill="#FAB957"/>
<path d="M75.5475 16.5616C75.0253 16.5721 74.9876 16.551 74.948 16.1627C74.93 15.9831 74.9372 15.7974 74.9372 15.616C74.9372 10.7341 74.9372 5.85045 74.9372 0.968555C74.9372 0.787189 74.9282 0.601423 74.9498 0.421818C74.9947 0.0494032 75.0613 0.0177069 75.5349 0.0819771C75.6554 0.539792 75.6733 15.9074 75.5475 16.5616Z" fill="#FAB957"/>
<path d="M76.6318 16.4936C77.1343 15.2716 77.6214 14.1015 78.0933 12.9235C78.4735 11.9735 78.8258 11.0121 79.2024 10.0621C79.5808 9.1069 79.9763 8.15957 80.3583 7.20608C80.7618 6.19801 81.1555 5.18553 81.5573 4.17746C82.0705 2.89029 82.5828 1.60313 83.1014 0.319483C83.283 -0.13217 83.674 0.0359905 84.0802 0.00957805C86.3066 5.49632 88.4736 10.9971 90.7125 16.5614C90.3593 16.5614 90.1418 16.5614 89.9027 16.5614C87.8597 11.4558 85.8221 6.36705 83.7432 1.16996C83.585 1.39007 83.4448 1.52653 83.3774 1.69029C82.6071 3.58934 81.8422 5.48751 81.0881 7.39361C80.3538 9.24688 79.6392 11.1063 78.9067 12.9613C78.487 14.0249 78.0519 15.0805 77.6214 16.1405C77.4201 16.63 77.3356 16.6635 76.6318 16.4936Z" fill="#FAB957"/>
<path d="M88.0354 0.128423C88.599 -0.149788 88.8344 0.0509483 89.0052 0.471786C89.6946 2.16746 90.384 3.86402 91.0608 5.56498C91.7897 7.39888 92.4953 9.23895 93.226 11.0729C93.8722 12.6911 94.54 14.3013 95.1917 15.9178C95.2654 16.0991 95.2888 16.3007 95.3355 16.4874C94.7054 16.6635 94.6605 16.6353 94.4664 16.1546C93.8039 14.5153 93.1253 12.8803 92.4683 11.2392C91.9982 10.0648 91.5632 8.87886 91.0931 7.70439C90.5332 6.30453 89.9445 4.91347 89.3836 3.51362C88.9926 2.54428 88.6277 1.5635 88.2475 0.59064C88.1891 0.443611 88.1172 0.304505 88.0354 0.128423Z" fill="#FAB957"/>
<path d="M92.1756 16.5735C91.8933 16.5735 91.6911 16.5735 91.4682 16.5735C89.2706 11.078 87.0802 5.60003 84.8881 0.120331C85.5918 -0.112098 85.6422 0.0111588 85.8758 0.540288C86.2596 1.40926 86.5886 2.30024 86.9436 3.18153C87.3634 4.22394 87.7912 5.26019 88.2056 6.30348C88.6594 7.4445 89.0963 8.58991 89.552 9.73093C90.209 11.372 90.8786 13.007 91.541 14.6463C91.7352 15.1296 91.9302 15.6139 92.11 16.1025C92.1558 16.2275 92.1486 16.3737 92.1756 16.5735Z" fill="#FAB957"/>
<path d="M93.763 16.5543C93.4844 16.5543 93.2696 16.5543 93.0466 16.5543C90.8482 11.0623 88.6632 5.60374 86.48 0.145174C87.0885 -0.0749293 87.2323 -0.0379527 87.4372 0.449797C87.723 1.13388 87.9828 1.82852 88.2524 2.51789C88.7153 3.69764 89.1719 4.87828 89.6438 6.05451C90.0258 7.00448 90.4338 7.943 90.8122 8.89297C91.2877 10.0833 91.7371 11.2833 92.2162 12.4736C92.6898 13.6516 93.186 14.8182 93.6614 15.9961C93.7261 16.1573 93.7261 16.3404 93.763 16.5543Z" fill="#FAB957"/>
<path d="M83.6905 2.81023C84.1426 3.23019 84.2324 3.5894 83.9925 4.1062C83.5583 5.03856 83.215 6.0123 82.8312 6.96755C82.345 8.17548 81.856 9.38252 81.3733 10.5922C80.8206 11.9762 80.2732 13.362 79.7267 14.7478C79.5344 15.2329 79.3519 15.7224 79.1596 16.2075C78.9924 16.6292 78.8594 16.668 78.2239 16.4839C80.0404 11.9392 81.8569 7.39895 83.6905 2.81023Z" fill="#FAB957"/>
<path d="M79.8118 16.4598C81.3613 12.579 82.9108 8.70076 84.4631 4.81637C84.89 5.14036 85.0302 5.48636 84.8649 5.90104C84.3301 7.24807 83.7809 8.58806 83.2398 9.93157C82.847 10.9009 82.4534 11.8694 82.066 12.8405C81.6139 13.9762 81.1789 15.1181 80.7232 16.2538C80.5695 16.6368 80.4077 16.6703 79.8118 16.4598Z" fill="#FAB957"/>
<path d="M81.3834 16.4623C82.6687 13.2409 83.9521 10.0221 85.2401 6.79005C85.6743 7.16951 85.7857 7.52697 85.6059 7.96629C84.7817 9.99565 83.9503 12.0197 83.1252 14.0491C82.8466 14.7384 82.5761 15.4296 82.31 16.1242C82.1123 16.641 82.0242 16.6833 81.3834 16.4623Z" fill="#FAB957"/>
<path d="M88.6541 14.5239C86.8817 14.5239 85.173 14.5239 83.4545 14.5239C83.6433 13.8592 83.6649 13.8363 84.2715 13.8345C85.4508 13.831 86.6309 13.831 87.8101 13.8345C88.3809 13.838 88.3809 13.8468 88.6541 14.5239Z" fill="#FAB957"/>
<path d="M87.9469 13.137C87.7977 13.1564 87.6378 13.1916 87.4787 13.1934C86.5304 13.1987 85.5813 13.2022 84.6331 13.1934C84.0443 13.1881 84.0192 13.1423 84.2115 12.4952C84.3931 12.4829 84.5953 12.4565 84.7948 12.4565C85.6802 12.4529 86.5673 12.4441 87.4535 12.4617C87.9685 12.4723 88.017 12.5568 87.9469 13.137Z" fill="#FAB957"/>
<path d="M87.4481 11.7004C86.5286 11.7004 85.6064 11.7004 84.6887 11.7004C84.6204 11.0604 84.6654 11.0005 85.2541 10.9917C85.7907 10.9829 86.3273 10.9829 86.863 10.9917C87.3249 11.0005 87.4517 11.1555 87.4481 11.7004Z" fill="#FAB957"/>
<path d="M25.4478 15.7769V4.25051C25.4478 3.94413 25.1944 3.69321 24.8789 3.69321H21.7798C21.467 3.69321 21.2109 3.44493 21.2109 3.13591V0.861798C21.2109 0.555414 21.4643 0.304497 21.7798 0.304497H32.8495C33.1623 0.304497 33.4184 0.552772 33.4184 0.861798V3.13591C33.4184 3.44229 33.165 3.69321 32.8495 3.69321H29.7504C29.4376 3.69321 29.1815 3.94149 29.1815 4.25051V15.7778C29.1815 16.0842 28.928 16.3351 28.6125 16.3351H26.0168C25.7031 16.3342 25.4478 16.0842 25.4478 15.7769Z" fill="#FAB957"/>
<path d="M46.7653 16.3322H43.979C43.7597 16.3322 43.5574 16.2072 43.4639 16.0117L41.1675 11.2179C40.8601 10.6271 40.3703 10.3313 39.7025 10.3313H39.1461C38.8333 10.3313 38.5771 10.5796 38.5771 10.8886V15.7758C38.5771 16.0821 38.3237 16.3331 38.0082 16.3331H35.5113C35.1985 16.3331 34.9424 16.0848 34.9424 15.7758V0.861546C34.9424 0.555162 35.1958 0.304245 35.5113 0.304245H41.6888C43.4019 0.304245 44.6908 0.725963 45.5528 1.56676C46.4165 2.40755 46.847 3.62429 46.847 5.21608C46.847 6.42929 46.5522 7.45497 45.9635 8.29576C45.5869 8.8337 45.1106 9.25982 44.5362 9.5706C44.1947 9.75549 44.1398 10.2265 44.4409 10.4713C44.8211 10.7794 45.1483 11.2187 45.4215 11.7848L47.2758 15.531C47.46 15.9025 47.1868 16.3322 46.7653 16.3322ZM42.8653 6.76032C43.2195 6.47331 43.3983 6.00228 43.3983 5.35166C43.3983 4.68518 43.2204 4.2036 42.8653 3.90778C42.5103 3.61196 41.9243 3.46493 41.1091 3.46493H39.1074C38.7947 3.46493 38.5385 3.71321 38.5385 4.02223V6.63706C38.5385 6.94345 38.792 7.19437 39.1074 7.19437H41.1091C41.9234 7.19261 42.5103 7.04998 42.8653 6.76032Z" fill="#FAB957"/>
<path d="M49.1398 15.7749V0.861546C49.1398 0.555162 49.3932 0.304245 49.7087 0.304245H52.2667C52.5795 0.304245 52.8357 0.552521 52.8357 0.861546V15.7749C52.8357 16.0813 52.5822 16.3322 52.2667 16.3322H49.7087C49.3941 16.3322 49.1398 16.0821 49.1398 15.7749Z" fill="#FAB957"/>
<path d="M17.2754 0.186798H15.1102C14.8783 0.186798 14.6689 0.324143 14.5826 0.536323L14.4334 0.898172C14.3507 1.09715 14.3921 1.3287 14.5431 1.48365C15.4482 2.41073 16.0872 3.58872 16.3434 4.89877C16.3488 4.92519 16.356 4.95336 16.3668 4.97977L17.8929 9.00855C18.0313 9.37216 17.7563 9.75954 17.3599 9.75954H15.7385C15.5515 9.75954 15.3727 9.84583 15.2666 9.99726C14.0155 11.7977 11.9078 12.9819 9.52146 12.9819H9.44955L8.43211 15.4479C8.28111 15.815 8.55614 16.213 8.95971 16.213H11.4368C11.6741 16.213 11.8871 16.0686 11.9698 15.8511L12.9576 13.2557C13.0403 13.0373 13.2524 12.8938 13.4906 12.8938H18.9661C19.2034 12.8938 19.4164 13.0382 19.4991 13.2557L20.4869 15.8511C20.5696 16.0695 20.7817 16.213 21.0199 16.213H23.435C23.8385 16.213 24.1136 15.8124 23.9626 15.4479L17.7968 0.533682C17.7141 0.324143 17.5073 0.186798 17.2754 0.186798Z" fill="#FAB957"/>
<path d="M5.67221 12.1875C5.65064 11.9709 5.62907 11.7675 5.60391 11.521C5.85377 11.5052 6.03443 11.4823 6.21419 11.4823C7.31253 11.4788 8.40997 11.4576 9.50831 11.4858C11.8677 11.5474 13.828 10.0736 14.5964 8.11295C15.702 5.29739 14.2073 2.33215 11.5998 1.33024C10.8745 1.05203 10.1402 0.913807 9.3699 0.913807C6.80111 0.915568 4.23323 0.913807 1.66444 0.913807C1.51884 0.913807 1.37503 0.906763 1.22852 0.919089C0.828556 0.950784 0.776426 1.00713 0.756652 1.4042C0.751259 1.5257 0.756652 1.64719 0.756652 1.76957C0.756652 6.35565 0.756652 10.9391 0.756652 15.5252C0.756652 15.7629 0.756652 16.0015 0.756652 16.2709C0.485213 16.2709 0.29197 16.2709 0.112209 16.2709C-0.0172191 15.7734 -0.0441832 1.02738 0.0816495 0.320409C0.281184 0.295757 0.501391 0.246454 0.718902 0.246454C3.70114 0.241172 6.68337 0.269346 9.6665 0.23589C12.3863 0.205956 14.7582 2.07155 15.444 4.50237C16.1208 6.9015 15.5483 9.0638 13.6491 10.7982C12.7386 11.632 11.5953 12.0801 10.3855 12.1611C8.84769 12.2667 7.29006 12.1875 5.67221 12.1875Z" fill="#FAB957"/>
<path d="M1.52698 16.2694C1.52698 11.3875 1.52698 6.54791 1.52698 1.66425C1.7391 1.64664 1.91796 1.62023 2.09772 1.62023C4.6665 1.61671 7.23259 1.61495 9.80137 1.62023C11.6017 1.62375 13.3597 2.97255 13.9682 4.56081C14.3044 5.43859 14.3394 6.33661 14.148 7.18797C13.7894 8.78152 12.8447 9.98593 11.1981 10.5274C10.8143 10.6542 10.4009 10.7457 9.99731 10.7545C8.69225 10.7827 7.38718 10.7686 6.08392 10.7651C5.88259 10.7651 5.648 10.8003 5.60126 10.5115C5.56351 10.2738 5.70732 10.0828 5.97247 10.0581C6.19717 10.037 6.42816 10.0493 6.65466 10.0493C7.68918 10.0476 8.7264 10.0264 9.76093 10.0528C11.3608 10.0933 12.7611 8.99458 13.215 7.68188C14.0123 5.37256 13.1287 3.71298 11.2619 2.67497C10.9051 2.47599 10.4449 2.37387 10.0306 2.36858C7.54627 2.33865 5.06108 2.35098 2.57498 2.34921C2.49409 2.34921 2.4132 2.36859 2.2586 2.38972C2.24243 2.63975 2.21187 2.89419 2.21187 3.14599C2.20827 7.22407 2.21007 11.3004 2.21007 15.3785C2.21007 15.5211 2.21546 15.662 2.20827 15.8055C2.1876 16.2765 2.14086 16.3099 1.52698 16.2694Z" fill="#FAB957"/>
<path d="M3.60745 16.2704C3.34679 16.2704 3.15535 16.2704 2.91986 16.2704C2.91986 11.8736 2.91986 7.52352 2.91986 3.11441C3.14995 3.09151 3.36836 3.04926 3.58767 3.04926C5.5965 3.04397 7.60713 3.09504 9.61416 3.03165C11.2949 2.97882 12.6899 4.34875 12.8687 5.85249C13.0251 7.16783 12.3196 8.79836 10.6855 9.21655C10.2514 9.32749 9.79841 9.4032 9.34991 9.41553C8.35673 9.44546 7.36086 9.42433 6.36768 9.42433C6.16275 9.42433 5.95692 9.42433 5.77357 9.42433C5.49314 8.81068 5.55965 8.69271 6.15736 8.68919C7.27547 8.6839 8.39448 8.65925 9.51259 8.69447C10.7458 8.73321 11.7228 7.97165 12.0239 6.97942C12.3205 5.99952 12.0508 5.00113 11.1044 4.23429C10.6721 3.88301 10.1651 3.72981 9.61596 3.72629C7.81385 3.71749 6.01265 3.72101 4.21054 3.72629C4.03078 3.72629 3.85192 3.76855 3.60924 3.79849C3.60745 7.97341 3.60745 12.1043 3.60745 16.2704Z" fill="#FAB957"/>
<path d="M5.64834 7.88332C5.62138 7.32074 5.65733 7.25735 6.1292 7.25383C7.22754 7.24327 8.32498 7.25207 9.42332 7.24855C9.63005 7.24855 9.84127 7.25031 10.0408 7.20981C10.3428 7.14818 10.5666 6.97738 10.6044 6.65074C10.6277 6.45001 10.6493 6.24487 10.6385 6.04414C10.6026 5.40936 10.3311 5.15933 9.64712 5.15052C8.59103 5.13996 7.53403 5.147 6.47794 5.147C6.04741 5.147 5.61598 5.147 5.12614 5.147C5.10816 5.4569 5.0794 5.7131 5.0794 5.96842C5.0758 9.11414 5.0776 12.259 5.0776 15.4029C5.0776 15.5456 5.08479 15.6864 5.0758 15.8299C5.04704 16.2763 4.97514 16.3221 4.39001 16.2481C4.39001 12.3321 4.39001 8.40981 4.39001 4.45323C4.58775 4.43738 4.74864 4.41449 4.90863 4.41449C6.46176 4.41273 8.01489 4.42154 9.56893 4.41097C10.3212 4.40569 10.8578 4.71207 11.2281 5.35037C11.682 6.13482 11.3504 7.42727 10.5603 7.85427C10.4399 7.91942 10.2889 7.95288 10.1496 7.95288C8.70068 7.95816 7.25181 7.95464 5.80114 7.95112C5.76339 7.95024 5.72564 7.9203 5.64834 7.88332Z" fill="#FAB957"/>
</svg>
